<svg xmlns:xlink="http://www.w3.org/1999/xlink" xmlns="http://www.w3.org/2000/svg" viewBox="0 0 490.62 500" width="490.62"  height="500" ><path d="M446.13 500c-12.27-2.25-21.15-9.8-29.67-18.35-42.75-42.71-85.72-85.2-128.47-127.95-3.06-3.06-5.16-3.5-9.03-1.36-34.94 19.38-72.53 27.12-112.11 22.26-55.39-6.82-99.94-32.95-132.34-78.57C6.55 256.66-4.32 212.44 1.54 164.72c5.82-47.39 27.09-87.19 63.17-118.78 27.04-23.62 58.33-38.81 93.82-43.71C231.5-7.83 291.79 16.12 337.6 73.72c27.27 34.31 39.51 74.55 38.7 118.3-.7 36.82-11.76 70.68-32.36 101.34-.63.92-1.18 1.92-2.91 4.24 1.66 1.03 3.61 1.81 4.98 3.17 43.85 43.45 87.71 86.94 131.49 130.42 14.45 14.34 17.17 33.02 7.19 49.86-5.09 8.59-12.6 14.34-22.26 17.14-1.84.55-3.69 1.22-5.53 1.81h-10.76ZM188.6 309.36c67.22-.59 121.32-55.39 120.73-122.2-.63-67-55.57-121.24-121.91-120.4-67.66.88-121.47 55.32-120.69 122.09.77 67.11 55.39 121.13 121.87 120.51Z" style="" stroke-width="0px"></path></svg>