<svg xmlns:xlink="http://www.w3.org/1999/xlink" id="account_svg__Livello_2" xmlns="http://www.w3.org/2000/svg" viewBox="0 0 439.6 500" width="439.6"  height="500" ><defs><style>.account_svg__cls-1{stroke-width:0}</style></defs><g id="account_svg__Livello_3"><g id="account_svg__Livello_1-2"><path class="account_svg__cls-1" d="M10.83 499.99C2.14 495.98-.16 489.09 0 479.83c1.73-89.72 70.14-169.46 158.49-183.93 11.02-1.81 22.29-2.57 33.48-2.81 19.84-.43 39.71-.72 59.54.01 75.27 2.77 130.39 38.48 166.45 103.96 14.19 25.75 20.36 53.9 21.6 83.27.39 9.15-2.37 15.75-10.79 19.67H10.83ZM230.55 0c9.97 2.16 20.21 3.5 29.87 6.6 57.36 18.41 95.67 74.95 91 133.59-4.97 62.43-49.83 111.83-110.49 121.69-74.89 12.17-144.49-41.25-152.2-116.83C81.39 73.27 133.78 8.48 205.3.85c1.28-.13 2.51-.56 3.76-.85h21.48Z" stroke-width="0px"></path></g></g></svg>