<svg xmlns:xlink="http://www.w3.org/1999/xlink" id="cart_svg__Livello_2" xmlns="http://www.w3.org/2000/svg" viewBox="0 0 500 486.27" width="500"  height="486.27" ><defs><style>.cart_svg__cls-1{stroke-width:0}</style></defs><g id="cart_svg__Livello_1-2"><path class="cart_svg__cls-1" d="M0 16.74C4.6 4.05 13.89-.37 27 .02c17.82.54 35.66.13 53.49.13 14.55 0 20.84 4.61 25.48 18.54 5.82 17.51 11.68 35.01 17.53 52.51 3.62 10.8 7.51 13.63 18.85 13.63 110.79 0 221.59 0 332.38.03 3.29 0 6.7-.08 9.83.71 12.19 3.08 18.33 15.35 14.14 28.13-7.08 21.61-14.29 43.17-21.47 64.74-11.09 33.3-22.23 66.58-33.32 99.86-4.36 13.06-10.8 17.76-24.47 17.76H200.98c-12.76 0-15.88 2.4-19.01 14.66-1.1 4.32-2.31 8.6-3.28 12.94-1.72 7.81 2.63 13.76 10.62 14.63 1.95.21 3.96.12 5.94.12 81.57 0 163.13 0 244.72.05 3.75 0 7.7.17 11.2 1.33 9.61 3.17 15.02 12.88 13.51 23.2-1.37 9.42-9.64 16.84-19.43 17.42-1.32.08-2.64.08-3.96.08-83.06 0-166.11.03-249.17 0-27.48-.01-49.08-17.29-54.85-43.7-1.84-8.39-1.33-16.73.82-25 9.94-38.2 9.26-35.42-2.97-71.95-20.62-61.56-41.07-123.17-61.61-184.77-3.2-9.6-7.38-12.59-17.53-12.6-9.91 0-19.84-.41-29.72.09-13.07.69-21.95-4.37-26.23-16.91v-8.91H0ZM162.49 486.27c-3.98-1.44-8.11-2.56-11.9-4.38-18.49-8.93-27.71-29.72-22.12-49.36 5.72-20.07 24.27-32.45 45.7-30.44 18.89 1.77 35.46 18.61 36.91 37.47 1.65 21.51-10.94 39.81-31.09 45.25-1.56.42-3.08.98-4.61 1.47h-12.89ZM416.12 486.27c-3.98-1.44-8.11-2.56-11.9-4.38-18.49-8.93-27.71-29.72-22.12-49.36 5.72-20.07 24.27-32.45 45.7-30.44 18.89 1.77 35.46 18.61 36.91 37.47 1.65 21.51-10.94 39.81-31.09 45.25-1.56.42-3.08.98-4.61 1.47h-12.89Z" stroke-width="0px"></path></g></svg>